<svg xmlns="http://www.w3.org/2000/svg" width="108" height="108" fill="none">
	<g>
		<path fill="#FF3D00"
			d="M16 0h76a16 16 0 0 1 16 16v76a16 16 0 0 1-16 16H16A16 16 0 0 1 0 92V16A16 16 0 0 1 16 0Z"/>
		<path fill="url(#b)"
			d="M49.4 14c.58 1.48.92 3.01 1 4.59a16.71 16.71 0 0 1-3.3 8.9 416.49 416.49 0 0 0-9.24 12.07c-4.98 7.47-6.12 15.39-3.4 23.76.64 1.68 1.24 3.36 1.8 5.04a15.6 15.6 0 0 1-6.02-6.66 36.71 36.71 0 0 1-3.01-10.26c-1.74 3.02-2.84 8.07-3.31 11.41l-.06.35a22.9 22.9 0 0 0-.26 3.66C23.6 81.85 37.22 94 54.02 94c6.32 0 12.2-1.72 17.06-4.66-3.5-4.56-7.04-9.1-10.6-13.62-1.23-1.52-2.8-1.58-4.39-1.55-1.38.02-2.71.04-3.85-1.05a44.1 44.1 0 0 1-4.5-5.95c-1.45-2.13-3.47-5.11-7.13-10.1a257.23 257.23 0 0 1 .94-.79l9.03 10.76c.51.61 1.45-.15.93-.78-1.6-2.16-2.66-3.69-3.7-5.18-1.25-1.78-2.46-3.52-4.5-6.25v-.01l.73-.63h.01c2.34 2.5 3.84 4 5.38 5.53 1.29 1.28 2.6 2.6 4.46 4.54.53.63 1.44-.16.93-.77l-9.03-10.76.47-.4.47-.4c4.27 4.48 6.86 6.98 8.71 8.78a44.62 44.62 0 0 1 5.07 5.47c.88 1.3.63 2.62.37 3.97-.3 1.56-.51 3.12.77 4.59 3.9 4.37 7.83 8.71 11.77 13.03a28.3 28.3 0 0 0 7.1-7.56l-1.5-1.9c-1.66-2.1-3.6-4.56-4.54-5.8-.66.2-1.21.57-1.7.9-1.06.68-1.87 1.2-2.99-.13-7.72-9.21-15.14-18.92-17.1-23.29-1.55-3.15-2.54-6-.64-8.54L82.12 77.3a24.64 24.64 0 0 0 2.18-7.66c.53-4.73-1.07-10.07-3.48-14.23a96.9 96.9 0 0 1-4.62-6.84 21.85 21.85 0 0 1-1.5-17.46c-5.36 1.53-9.07 4.65-11.15 9.36.2-4.02-.27-7.98-1.4-11.88A23.77 23.77 0 0 0 49.41 14Z"/>
	</g>
	<defs>
		<radialGradient id="b" cx="0" cy="0" r="1" gradientTransform="rotate(45 -40.2 66.71) scale(75.8492 75.8493)"
			gradientUnits="userSpaceOnUse">
			<stop stop-color="#9BFFE5"/>
			<stop offset="1" stop-color="#5D9989"/>
		</radialGradient>
	</defs>
</svg>